HIERARCHY
ROOT joint_Root
{
	OFFSET 0.0 0.0 0.0
	CHANNELS 6 Xposition Yposition Zposition Zrotation Xrotation Yrotation 
	JOINT Hips
	{
		OFFSET -17.1583 93.1646 452.98
		CHANNELS 6 Xposition Yposition Zposition Zrotation Xrotation Yrotation 
		JOINT Spine
		{
			OFFSET 15.7357 0.0 0.0
			CHANNELS 6 Xposition Yposition Zposition Zrotation Xrotation Yrotation 
			JOINT Chest
			{
				OFFSET 8.98455 -0.406207 0.0
				CHANNELS 6 Xposition Yposition Zposition Zrotation Xrotation Yrotation 
				JOINT Neck
				{
					OFFSET 16.3773 0.0 0.0
					CHANNELS 6 Xposition Yposition Zposition Zrotation Xrotation Yrotation 
					JOINT Head
					{
						OFFSET 6.45672 0.0 0.0
						CHANNELS 6 Xposition Yposition Zposition Zrotation Xrotation Yrotation 
						End Site
						{
							OFFSET 0.0 0.0 0.0
						}
					}
				}
				JOINT Shoulder_L
				{
					OFFSET 12.9942 -0.242716 4.98039
					CHANNELS 6 Xposition Yposition Zposition Zrotation Xrotation Yrotation 
					JOINT UpperArm_L
					{
						OFFSET 5.34809 0.0 0.0
						CHANNELS 6 Xposition Yposition Zposition Zrotation Xrotation Yrotation 
						JOINT LowerArm_L
						{
							OFFSET 24.3286 1.87007e-05 0.0
							CHANNELS 6 Xposition Yposition Zposition Zrotation Xrotation Yrotation 
							JOINT Hand_L
							{
								OFFSET 22.2916 0.0 0.0
								CHANNELS 6 Xposition Yposition Zposition Zrotation Xrotation Yrotation 
								End Site
								{
									OFFSET 0.0 0.0 0.0
								}
							}
						}
					}
				}
				JOINT Shoulder_R
				{
					OFFSET 12.9945 -0.242716 -4.98039
					CHANNELS 6 Xposition Yposition Zposition Zrotation Xrotation Yrotation 
					JOINT UpperArm_R
					{
						OFFSET -5.34813 0.0 0.0
						CHANNELS 6 Xposition Yposition Zposition Zrotation Xrotation Yrotation 
						JOINT LowerArm_R
						{
							OFFSET -24.3289 0.000322201 0.0
							CHANNELS 6 Xposition Yposition Zposition Zrotation Xrotation Yrotation 
							JOINT Hand_R
							{
								OFFSET -22.2915 -0.000108084 0.0
								CHANNELS 6 Xposition Yposition Zposition Zrotation Xrotation Yrotation 
								End Site
								{
									OFFSET 0.0 0.0 0.0
								}
							}
						}
					}
				}
			}
		}
		JOINT UpperLeg_L
		{
			OFFSET -2.19248 -6.46944 0.0
			CHANNELS 6 Xposition Yposition Zposition Zrotation Xrotation Yrotation 
			JOINT LowerLeg_L
			{
				OFFSET 39.0811 0.0 -1.23785e-05
				CHANNELS 6 Xposition Yposition Zposition Zrotation Xrotation Yrotation 
				JOINT Foot_L
				{
					OFFSET 40.9854 0.0 -1.26872e-05
					CHANNELS 6 Xposition Yposition Zposition Zrotation Xrotation Yrotation 
					JOINT Toes_L
					{
						OFFSET 11.7543 0.0 0.0
						CHANNELS 6 Xposition Yposition Zposition Zrotation Xrotation Yrotation 
						End Site
						{
							OFFSET 0.0 0.0 0.0
						}
					}
				}
			}
		}
		JOINT UpperLeg_R
		{
			OFFSET -2.19251 6.46944 0.0
			CHANNELS 6 Xposition Yposition Zposition Zrotation Xrotation Yrotation 
			JOINT LowerLeg_R
			{
				OFFSET -39.0811 -0.00228153 -0.0401928
				CHANNELS 6 Xposition Yposition Zposition Zrotation Xrotation Yrotation 
				JOINT Foot_R
				{
					OFFSET -40.9854 0.0 0.0
					CHANNELS 6 Xposition Yposition Zposition Zrotation Xrotation Yrotation 
					JOINT Toes_R
					{
						OFFSET -11.7543 0.0 0.0
						CHANNELS 6 Xposition Yposition Zposition Zrotation Xrotation Yrotation 
						End Site
						{
							OFFSET 0.0 0.0 0.0
						}
					}
				}
			}
		}
	}
}
MOTION
Frames:	7
Frame Time:	0.0333333
0.000000 0.000000 0.000000 0.000000 0.000000 -0.000000 -3.120140 92.812200 0.174086 86.901600 -0.149750 -1.490890 15.735700 0.000005 -0.000001 89.779000 88.281500 -87.930100 8.984550 -0.406207 -0.000000 -4.323100 -0.208187 3.692210 16.377300 -0.000001 -0.000001 2.455530 2.546290 -1.665040 6.456720 -0.000001 -0.000000 4.216740 2.552500 3.070010 12.994200 -0.242716 4.980390 -92.599600 8.041520 -72.019000 5.348090 -0.000007 -0.000001 -73.882400 13.206900 2.384210 24.328600 0.000019 0.000005 12.227100 24.940200 -27.199100 22.291600 -0.000001 0.000005 -2.577760 4.954210 8.278320 12.994500 -0.242716 -4.980390 88.211700 6.090210 -73.601900 -5.348130 -0.000001 -0.000004 -70.610300 30.536900 -2.677240 -24.328900 0.000322 -0.000009 2.415340 8.062830 -16.744700 -22.291500 -0.000108 -0.000004 0.559230 5.265100 1.030270 -2.192480 -6.469440 -0.000000 -174.748000 0.065043 -5.038690 39.081100 -0.000007 -0.000012 0.168326 -0.456380 20.245700 40.985400 -0.000006 -0.000013 -0.741741 8.235870 -72.071700 11.754300 -0.000000 0.000003 0.000371 0.161120 -10.042200 -2.192510 6.469440 -0.000001 -173.318000 7.816970 -179.752000 -39.081100 -0.002282 -0.040193 0.023377 -0.102844 11.026500 -40.985400 0.000008 0.000006 0.339253 2.736720 -68.348500 -11.754300 -0.000006 -0.000006 -0.008483 0.259595 -6.029690
0.000000 0.000000 0.000000 0.000000 0.000000 -0.000000 -3.162190 92.837700 0.061150 86.883400 -0.235882 -1.547450 15.735700 0.000005 -0.000001 89.102000 88.224900 -87.240300 8.984550 -0.406207 -0.000000 -4.209490 -0.250048 3.716340 16.377300 -0.000001 -0.000001 2.206010 2.576050 -1.650100 6.456720 -0.000001 -0.000000 3.805070 2.644590 3.078840 12.994200 -0.242716 4.980390 -92.615400 8.117070 -72.072700 5.348090 -0.000007 -0.000001 -72.759600 11.109000 1.521900 24.328600 0.000019 0.000005 12.170900 25.440300 -26.659900 22.291600 -0.000001 0.000005 -2.411530 4.951260 8.338680 12.994500 -0.242716 -4.980390 88.269800 5.950670 -73.755300 -5.348130 -0.000001 -0.000004 -70.761000 30.557300 -2.714420 -24.328900 0.000322 -0.000009 2.433370 8.032880 -16.921600 -22.291500 -0.000108 -0.000004 0.561852 5.266030 1.005250 -2.192480 -6.469440 -0.000000 -174.678000 0.003673 -5.135480 39.081100 -0.000007 -0.000012 0.161780 -0.440420 20.170100 40.985400 -0.000006 -0.000013 -0.973523 8.292500 -71.840000 11.754300 -0.000000 0.000003 0.000499 0.158746 -10.138600 -2.192510 6.469440 -0.000001 -173.270000 7.705520 -179.823000 -39.081100 -0.002282 -0.040193 0.021530 -0.094595 10.886000 -40.985400 0.000008 0.000006 0.226971 2.755020 -68.149600 -11.754300 -0.000006 -0.000006 -0.008302 0.258150 -6.088690
0.000000 0.000000 0.000000 0.000000 0.000000 -0.000000 -3.173380 92.865300 -0.040561 86.905200 -0.446267 -1.611460 15.735700 0.000005 -0.000001 90.130900 88.173500 -88.263500 8.984550 -0.406207 -0.000000 -4.107320 -0.185026 3.730080 16.377300 -0.000001 -0.000001 1.918390 2.625850 -1.598270 6.456720 -0.000001 -0.000000 3.369570 2.675290 3.060310 12.994200 -0.242716 4.980390 -92.633400 8.186380 -72.099000 5.348090 -0.000007 -0.000001 -71.498400 8.323290 0.475231 24.328600 0.000019 0.000005 11.696400 25.435100 -25.735000 22.291600 -0.000001 0.000005 -1.910640 4.927870 8.814210 12.994500 -0.242716 -4.980390 88.327300 5.792610 -73.863000 -5.348130 -0.000001 -0.000004 -70.842900 30.704700 -2.787900 -24.328900 0.000322 -0.000009 2.426540 7.924770 -17.092300 -22.291500 -0.000108 -0.000004 0.536485 5.266320 0.997459 -2.192480 -6.469440 -0.000000 -174.685000 -0.086300 -5.178760 39.081100 -0.000007 -0.000012 0.153077 -0.419886 20.030500 40.985400 -0.000006 -0.000013 -1.169750 8.175930 -71.657600 11.754300 -0.000000 0.000003 0.000370 0.161143 -10.041200 -2.192510 6.469440 -0.000001 -173.291000 7.556620 -179.908000 -39.081100 -0.002282 -0.040193 0.020470 -0.089933 10.786100 -40.985400 0.000008 0.000006 0.124637 2.830300 -67.963500 -11.754300 -0.000006 -0.000006 -0.008008 0.255767 -6.186050
0.000000 0.000000 0.000000 0.000000 0.000000 -0.000000 -3.208210 92.892000 -0.175295 86.917800 -0.567567 -1.681120 15.735700 0.000005 -0.000001 90.339700 88.126400 -88.459600 8.984550 -0.406207 -0.000000 -4.013310 -0.170944 3.756050 16.377300 -0.000001 -0.000001 1.646470 2.709630 -1.595790 6.456720 -0.000001 -0.000000 2.885320 2.740860 3.114950 12.994200 -0.242716 4.980390 -92.638400 8.254450 -72.205300 5.348090 -0.000007 -0.000001 -70.152000 4.670210 -0.680069 24.328600 0.000019 0.000005 10.982400 25.022800 -24.645100 22.291600 -0.000001 0.000005 -1.290110 4.894680 9.483320 12.994500 -0.242716 -4.980390 88.385200 5.640920 -73.996500 -5.348130 -0.000001 -0.000004 -70.881500 30.797300 -2.897890 -24.328900 0.000322 -0.000009 2.398860 7.773550 -17.216000 -22.291500 -0.000108 -0.000004 0.630259 5.265180 1.028140 -2.192480 -6.469440 -0.000000 -174.654000 -0.174891 -5.300700 39.081100 -0.000007 -0.000012 0.145700 -0.401127 19.962600 40.985400 -0.000006 -0.000013 -1.467510 8.181220 -71.459300 11.754300 -0.000000 0.000003 0.000351 0.161490 -10.027200 -2.192510 6.469440 -0.000001 -173.269000 7.464920 179.979000 -39.081100 -0.002282 -0.040193 0.019770 -0.087034 10.691900 -40.985400 0.000008 0.000006 0.113005 2.861810 -67.864500 -11.754300 -0.000006 -0.000006 -0.008522 0.259910 -6.016800
0.000000 0.000000 0.000000 0.000000 0.000000 -0.000000 -3.246170 92.901500 -0.281709 86.896200 -0.705507 -1.666470 15.735700 0.000005 -0.000001 90.529200 88.043300 -88.612700 8.984550 -0.406207 -0.000000 -3.847210 -0.157989 3.829310 16.377300 -0.000001 -0.000001 1.299820 2.776680 -1.557330 6.456720 -0.000001 -0.000000 2.447830 2.820950 3.107290 12.994200 -0.242716 4.980390 -92.636400 8.320200 -72.348500 5.348090 -0.000007 -0.000001 -68.922200 -0.405552 -1.773170 24.328600 0.000019 0.000005 10.402300 24.397400 -23.961500 22.291600 -0.000001 0.000005 -0.701801 4.855590 10.251200 12.994500 -0.242716 -4.980390 88.451800 5.449610 -74.114200 -5.348130 -0.000001 -0.000004 -70.913900 30.719200 -3.119610 -24.328900 0.000322 -0.000009 2.355630 7.645240 -17.189200 -22.291500 -0.000108 -0.000004 0.627394 5.267500 0.965740 -2.192480 -6.469440 -0.000000 -174.609000 -0.254123 -5.349320 39.081100 -0.000007 -0.000012 0.144316 -0.397235 19.966400 40.985400 -0.000006 -0.000013 -1.509910 8.149190 -71.334800 11.754300 -0.000000 0.000003 0.000510 0.158539 -10.147000 -2.192510 6.469440 -0.000001 -173.217000 7.339150 179.924000 -39.081100 -0.002282 -0.040193 0.019566 -0.085985 10.688100 -40.985400 0.000008 0.000006 0.141848 2.873670 -67.767200 -11.754300 -0.000006 -0.000006 -0.008557 0.260189 -6.005410
0.000000 0.000000 0.000000 0.000000 0.000000 -0.000000 -3.296340 92.915200 -0.417899 86.863500 -0.755119 -1.624780 15.735700 0.000005 -0.000001 89.775800 87.950100 -87.824000 8.984550 -0.406207 -0.000000 -3.659750 -0.210523 3.898140 16.377300 -0.000001 -0.000001 0.985295 2.796900 -1.445440 6.456720 -0.000001 -0.000000 1.959970 2.971800 3.069400 12.994200 -0.242716 4.980390 -92.631600 8.387840 -72.511400 5.348090 -0.000007 -0.000001 -67.800700 -6.182060 -2.524850 24.328600 0.000019 0.000005 10.607700 23.644700 -25.031200 22.291600 -0.000001 0.000005 -0.031450 4.777480 11.736100 12.994500 -0.242716 -4.980390 88.483100 5.364620 -74.186300 -5.348130 -0.000001 -0.000004 -70.790900 30.675000 -3.383760 -24.328900 0.000322 -0.000009 2.314660 7.510590 -17.191000 -22.291500 -0.000108 -0.000004 0.807035 5.266700 0.987228 -2.192480 -6.469440 -0.000000 -174.525000 -0.212478 -5.428960 39.081100 -0.000007 -0.000012 0.140355 -0.384931 20.033200 40.985400 -0.000006 -0.000013 -1.777780 8.098880 -71.257800 11.754300 -0.000000 0.000003 0.000469 0.159320 -10.115200 -2.192510 6.469440 -0.000001 -173.137000 7.204470 179.897000 -39.081100 -0.002282 -0.040193 0.019079 -0.083824 10.635600 -40.985400 0.000008 0.000006 0.176399 2.781670 -67.670000 -11.754300 -0.000006 -0.000006 -0.008584 0.260401 -5.996750
0.000000 0.000000 0.000000 0.000000 0.000000 -0.000000 -3.338290 92.913000 -0.521097 86.810400 -0.881927 -1.564020 15.735700 0.000005 -0.000001 89.460800 87.837900 -87.458600 8.984550 -0.406207 -0.000000 -3.434700 -0.236270 3.998400 16.377300 -0.000001 -0.000001 0.679812 2.819440 -1.356770 6.456720 -0.000001 -0.000000 1.442300 3.067370 2.963460 12.994200 -0.242716 4.980390 -92.626300 8.458910 -72.681500 5.348090 -0.000007 -0.000001 -66.617400 -11.207800 -2.622980 24.328600 0.000019 0.000005 11.923400 22.661700 -28.724900 22.291600 -0.000001 0.000005 1.023060 4.702310 13.113000 12.994500 -0.242716 -4.980390 88.532200 5.206280 -74.231900 -5.348130 -0.000001 -0.000004 -70.730100 30.453400 -3.722160 -24.328900 0.000322 -0.000009 2.304230 7.489120 -17.163900 -22.291500 -0.000108 -0.000004 0.788769 5.266180 1.001270 -2.192480 -6.469440 -0.000000 -174.444000 -0.244891 -5.484020 39.081100 -0.000007 -0.000012 0.139299 -0.379619 20.150500 40.985400 -0.000006 -0.000013 -1.809290 8.001090 -71.222200 11.754300 -0.000000 0.000003 0.000456 0.159565 -10.105300 -2.192510 6.469440 -0.000001 -173.041000 7.104610 179.867000 -39.081100 -0.002282 -0.040193 0.019787 -0.087219 10.680200 -40.985400 0.000008 0.000006 0.339053 2.760950 -67.642400 -11.754300 -0.000006 -0.000006 -0.008783 0.261979 -5.932270
